<?xml version="1.0" standalone="no"?>
<!DOCTYPE svg PUBLIC "-//W3C//DTD SVG 20010904//EN"
 "http://www.w3.org/TR/2001/REC-SVG-20010904/DTD/svg10.dtd">
<svg version="1.0" xmlns="http://www.w3.org/2000/svg"
 width="1798.000000pt" height="1798.000000pt" viewBox="0 0 1798.000000 1798.000000"
 preserveAspectRatio="xMidYMid meet">
<metadata>
Created by potrace 1.11, written by Peter Selinger 2001-2013
</metadata>
<g transform="translate(0.000000,1798.000000) scale(0.100000,-0.100000)"
fill="#000000" stroke="none">
<path d="M13070 15057 c-80 -76 -164 -153 -255 -232 -38 -33 -73 -64 -79 -70
-362 -332 -1017 -834 -1533 -1175 l-219 -145 -1 -3053 c0 -1679 -2 -3054 -4
-3056 -14 -12 -479 -335 -496 -344 l-20 -11 -1 3042 c0 1673 -1 3057 -1 3075
l-1 32 -40 -25 c-22 -14 -42 -25 -44 -25 -2 0 -35 -17 -73 -38 -159 -90 -476
-252 -643 -330 -36 -16 -105 -48 -153 -71 -49 -22 -91 -41 -93 -41 -2 0 -29
-12 -61 -26 -208 -95 -549 -228 -817 -321 -72 -24 -135 -45 -141 -47 -20 -3
-80 -30 -85 -37 -3 -4 -5 -1462 -5 -3241 l0 -3233 -97 -48 c-292 -142 -417
-198 -421 -189 -2 4 -3 1483 -3 3288 l1 3281 -110 -29 c-113 -29 -483 -112
-545 -123 -19 -3 -66 -12 -105 -20 -38 -7 -86 -16 -105 -19 -19 -3 -46 -8 -60
-11 -14 -3 -70 -12 -125 -20 -55 -9 -111 -18 -125 -20 -55 -9 -258 -36 -305
-40 -27 -3 -66 -7 -85 -10 -19 -2 -64 -7 -100 -10 -36 -3 -85 -8 -110 -10 -75
-8 -160 -14 -270 -20 -57 -4 -106 -8 -108 -10 -2 -2 -4 -1558 -4 -3457 0
-1899 -2 -3460 -4 -3470 -4 -12 -27 -19 -92 -29 -48 -7 -89 -13 -92 -14 -3 -1
-34 -5 -70 -9 -36 -4 -76 -9 -90 -11 -14 -2 -58 -6 -97 -10 l-73 -7 -1 1548
c0 852 0 2427 0 3499 l-1 1950 -106 1 c-117 0 -493 13 -557 19 -22 2 -80 6
-129 10 -107 7 -177 13 -231 20 -22 2 -71 7 -110 11 -38 3 -77 7 -85 9 -9 2
-43 6 -75 10 -33 4 -71 9 -85 11 -14 2 -61 8 -105 14 -44 6 -91 13 -105 15
-21 4 -147 25 -235 40 -37 6 -290 56 -312 62 l-23 5 -2 -3318 -3 -3318 -101
101 c-56 56 -126 134 -156 175 -134 178 -225 388 -253 581 -14 94 -27 32 -29
-130 -1 -245 24 -390 101 -583 141 -352 457 -662 898 -883 158 -79 201 -99
316 -143 141 -53 279 -91 439 -120 14 -2 34 -6 45 -8 11 -3 47 -8 80 -11 33
-4 71 -8 85 -11 47 -8 274 -18 400 -17 156 0 355 12 488 28 23 3 63 7 90 11
38 4 183 27 312 49 88 15 291 60 413 91 78 19 149 37 157 39 8 2 78 22 155 45
77 23 147 43 155 45 8 2 101 32 205 68 401 136 758 279 1190 477 103 47 616
302 720 358 82 44 119 64 285 155 611 336 1443 869 2052 1316 64 47 126 93
138 101 21 15 54 40 286 215 109 82 514 401 574 452 14 11 84 69 155 128 72
58 139 114 151 124 11 10 79 67 150 127 71 59 131 111 134 115 3 3 41 37 85
75 44 38 98 85 120 105 22 20 69 62 105 94 143 128 258 233 325 295 151 142
254 240 365 347 63 61 137 132 163 158 27 26 46 49 44 52 -5 5 -335 103 -346
103 -3 0 -71 -63 -151 -139 l-145 -139 -5 3008 -5 3009 -65 -62z"/>
<path d="M16490 11024 c-245 -97 -524 -207 -715 -281 -144 -57 -558 -219 -580
-228 -11 -5 -22 -9 -25 -10 -3 -1 -14 -5 -25 -10 -11 -4 -105 -41 -210 -82
-104 -40 -199 -78 -210 -82 -11 -5 -58 -24 -105 -41 -47 -18 -98 -39 -115 -46
-16 -7 -95 -38 -175 -68 -80 -31 -154 -61 -165 -65 -11 -5 -123 -49 -250 -99
-431 -167 -525 -205 -521 -209 2 -2 127 -40 277 -83 151 -44 304 -89 340 -100
37 -12 75 -23 85 -25 58 -12 411 -119 419 -126 8 -9 -620 -643 -861 -869 -283
-266 -597 -550 -749 -680 -27 -24 -52 -46 -55 -49 -20 -27 -620 -523 -895
-741 -175 -139 -169 -134 -440 -338 -691 -521 -1296 -925 -2095 -1397 -273
-162 -989 -536 -1265 -662 -49 -23 -126 -58 -170 -78 -124 -56 -128 -58 -330
-143 -354 -148 -722 -281 -1053 -381 -191 -58 -463 -132 -553 -150 -24 -5
-111 -23 -193 -40 -257 -53 -513 -91 -731 -106 -44 -3 -106 -8 -139 -11 -73
-6 -437 -6 -491 0 -22 3 -74 8 -115 11 -119 10 -139 13 -300 39 -375 61 -879
276 -1220 519 -562 401 -851 942 -844 1582 1 95 11 251 18 288 2 7 6 35 10 62
24 156 97 408 159 548 48 107 17 58 -47 -75 -100 -208 -156 -350 -217 -553
-22 -71 -42 -141 -44 -155 -3 -14 -7 -35 -10 -47 -20 -90 -30 -146 -40 -219
-3 -22 -7 -48 -9 -59 -6 -33 -17 -222 -18 -315 -2 -215 34 -459 100 -671 86
-276 244 -559 441 -789 91 -107 249 -256 366 -346 61 -46 115 -88 120 -92 30
-24 192 -125 270 -169 316 -177 785 -346 1135 -409 14 -3 32 -7 40 -9 8 -3 33
-7 55 -10 22 -4 51 -8 65 -11 64 -12 212 -33 275 -39 39 -4 77 -9 86 -10 9 -2
61 -6 115 -10 55 -4 119 -8 144 -10 56 -5 593 -5 640 -1 19 2 85 6 145 10 61
4 126 9 145 11 48 4 195 22 260 30 19 3 55 7 80 10 25 3 56 8 70 10 14 3 41 7
60 10 568 89 1192 259 1795 490 183 70 456 180 522 211 17 7 34 14 37 14 3 0
31 12 63 26 32 15 72 32 88 39 17 7 57 25 90 40 71 32 108 48 115 50 3 1 30
13 60 27 30 14 111 51 180 83 266 122 841 410 1130 568 113 61 122 66 303 168
279 156 338 191 642 374 225 136 312 190 494 306 348 223 1057 708 1202 823
14 12 36 28 49 36 43 29 476 357 639 484 237 185 689 556 826 677 17 14 86 75
155 134 69 59 130 113 135 119 6 6 33 31 60 55 94 84 249 226 343 316 52 50
133 127 179 171 l86 82 66 -87 c62 -82 156 -203 333 -432 57 -75 78 -95 82
-82 4 15 43 219 61 318 5 29 8 48 20 105 2 14 7 39 10 55 7 43 12 70 46 255
38 199 37 199 44 230 2 14 7 39 10 55 6 36 13 71 20 105 3 14 8 37 10 51 2 14
13 75 25 135 11 60 23 125 26 144 3 19 9 51 14 70 5 19 11 51 14 70 3 19 7 44
10 55 2 11 7 40 12 65 4 25 8 47 9 50 1 3 5 25 9 50 13 69 15 80 31 160 8 41
17 91 20 110 3 19 8 42 10 50 2 8 6 32 9 52 3 21 19 107 35 190 24 123 146
776 165 878 2 14 12 65 21 113 9 48 15 93 13 100 -2 8 -90 -23 -258 -89z"/>
</g>
</svg>
