<svg id="Layer_1" xmlns="http://www.w3.org/2000/svg" viewBox="0 0 51.8 55.3"><style>.st0{fill:#0AB45B;} .st1{fill:#0855B4;}</style><path class="st0" d="M25.9 17.2c-2.7 0-4.9-2.2-4.9-4.9s2.2-4.9 4.9-4.9 4.9 2.2 4.9 4.9-2.2 4.9-4.9 4.9zm0-6.7c-1 0-1.9.8-1.9 1.9 0 1 .8 1.9 1.9 1.9 1 0 1.9-.8 1.9-1.9 0-1.1-.9-1.9-1.9-1.9z"/><path class="st1" d="M51.8 52.3v3H0v-3h51.8zM51 21.2H.9L25.9 0 51 21.2zm-42-3h33.8L25.9 3.9 9 18.2zm-2.9 31V24.3h-3v24.8h3zm10 0V24.3h-3v24.8h3zm24 0V24.3h-3v24.8h3zm10 0V24.3h-3v24.8h3z"/></svg>