<?xml version="1.0" encoding="UTF-8"?>
<svg width="937px" height="774px" viewBox="0 0 937 774" version="1.1" xmlns="http://www.w3.org/2000/svg" xmlns:xlink="http://www.w3.org/1999/xlink">
    <!-- Generator: Sketch 49.1 (51147) - http://www.bohemiancoding.com/sketch -->
    <title>Artboard</title>
    <desc>Created with Sketch.</desc>
    <defs></defs>
    <g id="Artboard" stroke="none" stroke-width="1" fill="none" fill-rule="evenodd">
        <g id="mutualfunds" transform="translate(167.000000, 86.000000)" fill="#0076BF" fill-rule="nonzero">
            <path d="M301.5,0 C266.95815,0 238.6875,28.2706413 238.6875,62.8124801 C238.6875,93.0365893 260.386079,118.367292 288.9375,124.250938 L288.9375,151.33882 C256.869835,154.0184 227.579737,166.813617 204.3366,186.47455 L178.034493,160.171824 C194.062987,135.822567 191.357654,102.634965 169.986328,81.2636459 C145.561688,56.8390139 105.688313,56.8390139 81.2636719,81.2636459 C56.8390308,105.688279 56.8390308,145.561642 81.2636719,169.986274 C102.634996,191.357594 135.822609,194.062613 160.171875,178.034124 L186.474609,204.140561 C166.759022,227.401404 154.023787,256.817745 151.339182,288.937598 L124.250662,288.937598 C118.368272,260.386123 93.0366192,238.687551 62.8124996,238.687551 C28.2706504,238.687551 0,266.958192 0,301.500094 C0,336.041306 28.2706504,364.312575 62.8124996,364.312575 C93.0366192,364.312575 118.368272,342.614003 124.250662,314.06259 L151.339182,314.06259 C154.018763,346.130246 166.813669,375.420962 186.474609,398.662835 L160.171875,424.965561 C135.822609,408.937073 102.634996,411.641779 81.2636719,433.013726 C56.8390308,457.438358 56.8390308,497.311721 81.2636719,521.736354 C105.688313,546.160986 145.561688,546.160986 169.986328,521.736354 C191.395969,500.32672 194.15909,466.992136 178.034493,442.631572 L204.140625,416.52545 C227.40135,436.240402 256.8177,448.976889 288.9375,451.660866 L288.9375,478.748748 C260.386079,484.632393 238.6875,509.963411 238.6875,540.18752 C238.6875,574.728731 266.958779,603 301.5,603 C336.04185,603 364.3125,574.728731 364.3125,540.18752 C364.3125,509.963411 342.613921,484.632393 314.0625,478.748748 L314.0625,451.660866 C346.1823,448.976889 375.59865,436.240402 398.859375,416.52545 L424.965507,442.631572 C408.841538,466.992136 411.604031,500.32672 433.013672,521.736354 C457.438312,546.160986 497.311687,546.160986 521.736328,521.736354 C546.160969,497.311721 546.160969,457.438358 521.736328,433.013726 C500.365004,411.641779 467.177391,408.937073 442.828125,424.965561 L416.525391,398.662835 C436.186331,375.420962 448.980609,346.130246 451.660818,314.06259 L478.749338,314.06259 C484.631728,342.614003 509.963381,364.312575 540.1875,364.312575 C574.72935,364.312575 603,336.041306 603,301.500094 C603,266.958192 574.72935,238.687551 540.1875,238.687551 C509.963381,238.687551 484.631728,260.386123 478.749338,288.937598 L451.660818,288.937598 C448.976213,256.817745 436.240978,227.401404 416.525391,204.140561 L442.63215,178.034124 C466.992722,194.158088 500.326687,191.395909 521.736328,169.986274 C546.160969,145.561642 546.160969,105.688279 521.736328,81.2636459 C497.311687,56.8390139 457.438312,56.8390139 433.013672,81.2636459 C411.642346,102.634965 408.936384,135.822567 424.965507,160.171824 L398.6634,186.47455 C375.42089,166.813617 346.130165,154.0184 314.0625,151.33882 L314.0625,124.250938 C342.613921,118.367292 364.3125,93.0365893 364.3125,62.8124801 C364.3125,28.2706413 336.04185,0 301.5,0 Z M301.5,25.1249918 C322.463044,25.1249918 339.1875,41.8494437 339.1875,62.8124801 C339.1875,83.7755178 322.463044,100.499968 301.5,100.499968 C280.536956,100.499968 263.8125,83.7755178 263.8125,62.8124801 C263.8125,41.8494437 280.536956,25.1249918 301.5,25.1249918 Z M126.214181,87.7411836 C135.677512,87.8642957 145.024641,91.634175 152.320312,98.9296563 C167.143435,113.752774 167.143435,137.497148 152.320312,152.320265 C137.497191,167.143382 113.752809,167.143382 98.9296875,152.320265 C84.1065661,137.497148 84.1065661,113.752774 98.9296875,98.9296563 C105.415079,92.4442679 113.7057,88.7483821 122.091797,87.9374731 C123.439753,87.8074513 124.861829,87.7232821 126.214181,87.7414981 L126.214181,87.7411836 Z M477.964181,87.7411836 C487.427512,87.8642957 496.77464,91.634175 504.070312,98.9296563 C518.893434,113.752774 518.893434,137.497148 504.070312,152.320265 C489.247191,167.143382 465.502809,167.143382 450.679688,152.320265 C435.856565,137.497148 435.856565,113.752774 450.679688,98.9296563 C457.165078,92.4442679 465.4557,88.7483821 473.841796,87.9374731 C475.189754,87.8074513 476.611828,87.7232821 477.964181,87.7414981 L477.964181,87.7411836 Z M301.5,175.874945 C371.029669,175.874945 427.125,231.970385 427.125,301.500094 C427.125,371.029742 371.029669,427.125055 301.5,427.125055 C231.970331,427.125055 175.875,371.029742 175.875,301.500094 C175.875,231.970385 231.970331,175.874945 301.5,175.874945 Z M244.96875,213.562433 C238.031109,213.562433 232.40625,219.186662 232.40625,226.125055 C232.40625,233.063322 238.031109,238.687551 244.96875,238.687551 L306.406912,238.687551 C313.603968,238.687551 324.704821,246.476298 329.9616,257.531295 L244.96875,257.531295 C238.031109,257.531295 232.40625,263.154896 232.40625,270.093791 C232.40625,277.032057 238.031109,282.656288 244.96875,282.656288 L329.9616,282.656288 C324.734971,293.793002 313.637259,301.500094 306.406912,301.500094 C285.686325,301.167188 263.967646,302.046562 243.594413,301.305375 C238.83825,301.770188 234.365372,305.166458 232.995431,309.745488 C231.704007,314.060706 232.681368,319.596998 236.136057,322.897165 L311.511057,398.272142 C316.153528,403.047774 324.444778,403.303422 329.373047,398.272142 C334.034362,393.514725 334.004841,384.999865 329.178328,380.409529 L275.395753,326.626342 L306.408797,326.626342 C330.074035,326.626342 351.288329,307.997417 356.658797,282.657543 L370.595635,282.657543 C377.533275,282.657543 383.158134,277.033314 383.158134,270.095048 C383.158134,263.156153 377.533275,257.532551 370.595635,257.532551 L356.658797,257.532551 C355.188985,250.683478 352.727991,244.326228 349.200441,238.688808 L370.595635,238.688808 C377.533275,238.688808 383.158134,233.064577 383.158134,226.126311 C383.158134,219.188234 377.533275,213.564003 370.595635,213.564003 L306.408797,213.564003 L244.970634,213.564003 L244.96875,213.562433 Z M62.8124996,263.812543 C83.7755437,263.812543 100.5,280.536995 100.5,301.500094 C100.5,322.463131 83.7755437,339.187582 62.8124996,339.187582 C41.8494567,339.187582 25.1249996,322.463131 25.1249996,301.500094 C25.1249996,280.536995 41.8494567,263.812543 62.8124996,263.812543 Z M540.1875,263.812543 C561.150543,263.812543 577.875,280.536995 577.875,301.500094 C577.875,322.463131 561.150543,339.187582 540.1875,339.187582 C519.224456,339.187582 502.5,322.463131 502.5,301.500094 C502.5,280.536995 519.224456,263.812543 540.1875,263.812543 Z M126.214181,439.490948 C135.677512,439.616573 145.024641,443.384065 152.320312,450.679735 C167.143435,465.502852 167.143435,489.247226 152.320312,504.070344 C137.497191,518.893461 113.752809,518.893461 98.9296875,504.070344 C84.1065661,489.247226 84.1065661,465.502852 98.9296875,450.679735 C105.415079,444.194346 113.7057,440.497831 122.091797,439.687552 C123.439753,439.555645 124.861829,439.473988 126.214181,439.492832 L126.214181,439.490948 Z M477.964181,439.490948 C487.427512,439.616573 496.77464,443.384065 504.070312,450.679735 C518.893434,465.502852 518.893434,489.247226 504.070312,504.070344 C489.247191,518.893461 465.502809,518.893461 450.679688,504.070344 C435.856565,489.247226 435.856565,465.502852 450.679688,450.679735 C457.165078,444.194346 465.4557,440.497831 473.841796,439.687552 C475.189754,439.555645 476.611828,439.473988 477.964181,439.492832 L477.964181,439.490948 Z M301.5,502.500032 C322.463044,502.500032 339.1875,519.224482 339.1875,540.18752 C339.1875,561.150556 322.463044,577.875008 301.5,577.875008 C280.536956,577.875008 263.8125,561.150556 263.8125,540.18752 C263.8125,519.224482 280.536956,502.500032 301.5,502.500032 Z" id="Shape"></path>
        </g>
    </g>
</svg>