<?xml version="1.0" encoding="UTF-8"?>
<svg width="634px" height="722px" viewBox="0 0 634 722" version="1.1" xmlns="http://www.w3.org/2000/svg" xmlns:xlink="http://www.w3.org/1999/xlink">
    <!-- Generator: Sketch 48.2 (47327) - http://www.bohemiancoding.com/sketch -->
    <title>Artboard</title>
    <desc>Created with Sketch.</desc>
    <defs></defs>
    <g id="Page-1" stroke="none" stroke-width="1" fill="none" fill-rule="evenodd">
        <g id="Artboard" fill="#0076BF" fill-rule="nonzero">
            <path d="M188,122 C216.718807,122 240,145.281193 240,174 C240,202.718807 216.718807,226 188,226 C159.281193,226 136,202.718807 136,174 C136.026892,145.29234 159.29234,122.026892 188,122 Z M100.272611,292.011611 L111.563757,378.49118 C113.087715,391.740708 121.406462,403.235694 133.510618,408.817725 L152.231436,583.146449 C153.377053,593.325217 161.987201,601.014491 172.223119,600.999979 L202.528361,600.999979 C205.200603,600.985835 207.843033,600.437021 210.300189,599.385825 C213.581784,598.175015 216.565452,596.273466 219.049605,593.809653 L313.240251,499.552793 L357.23173,543.575198 C366.775433,553.122727 382.245778,553.122727 391.789481,543.575198 L481.043305,454.25863 L492.969884,466.193593 C496.396175,469.700176 501.071384,471.705246 505.97181,471.769764 C506.898891,471.847574 507.830855,471.847574 508.757937,471.769764 C516.119785,470.511145 521.871982,464.715613 523.079607,457.340198 L534.761789,385.779333 C535.690676,380.200901 533.87018,374.51696 529.873847,370.518233 C525.877929,366.51909 520.197981,364.697314 514.623467,365.626855 L443.601668,377.512904 C435.578477,378.829864 429.510045,385.489589 428.937841,393.605539 C428.634376,398.806423 430.616162,403.880501 434.363457,407.497053 L446.436674,419.578757 L374.437286,491.62876 L330.445807,447.606355 C320.902104,438.058827 305.431759,438.058827 295.888056,447.606355 L229.949716,513.73779 L241.191983,409.111208 C253.604621,403.686024 262.190532,392.056144 263.725397,378.589007 L275.065422,291.913783 C276.455944,279.46785 272.483519,267.018351 264.142613,257.68192 C255.801706,248.345488 243.881899,243.005944 231.36722,243 L216.458996,243 C214.366401,243.002497 212.388276,243.956263 211.08226,245.592431 L187.37574,275.185269 L163.7181,245.836999 C162.401406,244.187384 160.402209,243.232141 158.292484,243.244569 L143.970814,243.244569 C131.456134,243.250513 119.536327,248.590057 111.19542,257.926489 C102.854514,267.26292 98.8820894,279.712419 100.272611,292.158352 L100.272611,292.011611 Z M530,212.682564 C529.89655,188.529151 520.14491,165.405875 502.890377,148.399704 C485.635843,131.393533 462.291853,121.897559 437.99393,122.000834 C435.069702,122.000805 432.26595,123.158855 430.202798,125.218852 C428.139646,127.278848 426.987112,130.071032 427.000109,132.97784 L427.244416,213.02256 C427.231227,215.946281 428.397142,218.75334 430.481501,220.816174 C432.56586,222.879009 435.394833,224.025585 438.33596,223.999567 L518.859594,223.756713 C521.792433,223.744015 524.598588,222.566944 526.654005,220.487266 C528.709422,218.407588 529.843687,215.597728 529.804554,212.682564 L530,212.682564 Z M403.463422,255.411465 C401.689085,255.424514 399.982937,254.728706 398.72367,253.478481 C397.464404,252.228256 396.756198,250.527047 396.756246,248.75245 L396.511459,168.599448 C396.530174,167.043914 395.89325,165.552365 394.756742,164.490255 C393.620234,163.428145 392.089156,162.893612 390.538646,163.017626 C341.015855,166.2561 302.855473,207.973582 304.02623,257.594254 C305.196987,307.214926 345.282375,347.085825 394.902779,347.984541 C444.523184,348.883257 486.025738,310.490064 488.992149,260.944324 C489.072137,259.443573 488.538259,257.974848 487.513267,256.875852 C486.488276,255.776855 485.06037,255.142154 483.557868,255.117685 L403.463422,255.411465 Z" id="Shape"></path>
        </g>
    </g>
</svg>