<svg version="1.1" id="Layer_1" xmlns="http://www.w3.org/2000/svg" xmlns:xlink="http://www.w3.org/1999/xlink" x="0px" y="0px"
	 viewBox="0 0 60 60" enable-background="new 0 0 60 60" xml:space="preserve">
<g>
	<g>
		<path fill="#2058A7" d="M30.2,57C14.5,57,1.7,44.2,1.7,28.5C1.7,12.8,14.5,0,30.2,0C41.7,0,52,6.8,56.4,17.4
			c1.5,3.5,2.2,7.2,2.2,11.1C58.7,44.2,45.9,57,30.2,57z M30.2,3C16.1,3,4.7,14.4,4.7,28.5C4.7,42.5,16.1,54,30.2,54
			s25.5-11.4,25.5-25.5c0-3.4-0.7-6.8-2-9.9C49.7,9.1,40.5,3,30.2,3z"/>
	</g>
</g>
<polygon fill="none" stroke="#1CB25A" stroke-width="3" stroke-miterlimit="10" points="34,24 37.4,14.3 26.9,14.3 20.3,33.4 
	27.6,33.4 23,47 23.1,47 41.3,24 "/>
</svg>
