<svg xmlns:dc="http://purl.org/dc/elements/1.1/" xmlns:cc="http://creativecommons.org/ns#" xmlns:rdf="http://www.w3.org/1999/02/22-rdf-syntax-ns#" xmlns:svg="http://www.w3.org/2000/svg" xmlns="http://www.w3.org/2000/svg" xmlns:sodipodi="http://sodipodi.sourceforge.net/DTD/sodipodi-0.dtd" xmlns:inkscape="http://www.inkscape.org/namespaces/inkscape" version="1.1" x="0px" y="0px" viewBox="0 0 100 125"><g transform="translate(0,-952.36218)"><path style="text-indent:0;text-transform:none;direction:ltr;block-progression:tb;baseline-shift:baseline;color:#000000;enable-background:accumulate;" d="m 18.000002,958.36224 c -1,-6e-5 -2,0.99994 -2,2 l 0,83.99996 c 10e-5,1.0472 0.9528,1.9999 2,2 l 63.999996,0 c 1.0471,-10e-5 1.9999,-0.9528 2,-2 l 0,-61.99996 c 0,-0.53246 -0.2151,-1.06311 -0.5938,-1.4375 l -21.999996,-22 c -0.3721,-0.35999 -0.8885,-0.56653 -1.4062,-0.5625 l -42,0 z m 2,4 38,0 0,20 a 2.0002002,2.0002002 0 0 0 2,2 l 19.999996,0 0,57.99996 -59.999996,0 0,-79.99996 z m 42,2.8125 15.187496,15.1875 -15.187496,0 0,-15.1875 z m -3.0938,33.1875 c -0.3847,0.018 -0.7619,0.15845 -1.0937,0.40625 -0.8847,0.661 -1.0675,1.89681 -0.4063,2.78121 l 3.5938,4.8125 -26,0 c -1.1046,0 -2,0.8958 -2,2 0,1.1042 0.8954,2 2,2 l 29.999996,0 c 1.1046,0 2,-0.8958 2,-2 4e-4,-0.6319 -0.3229,-0.9655 -0.5938,-1.4062 l -5.781196,-7.78126 c -0.4134,-0.5529 -1.0774,-0.8431 -1.7188,-0.8125 z m -23.9062,15.99996 c -1.1046,0 -2,0.8957 -2,2 -4e-4,0.6319 0.3229,0.9656 0.5938,1.4063 l 5.7812,7.7812 c 0.4134,0.5528 1.0774,0.8431 1.7188,0.8125 0.3847,-0.018 0.7619,-0.1584 1.0937,-0.4062 0.8847,-0.661 1.0675,-1.8969 0.4063,-2.7813 l -3.5938,-4.8125 25.999996,0 c 1.1046,0 2,-0.8958 2,-2 0,-1.1043 -0.8954,-2 -2,-2 l -29.999996,0 z" fill="#0076BF" fill-opacity="1" stroke="none" marker="none" visibility="visible" display="inline" overflow="visible"/></g></svg>