<?xml version="1.0" encoding="UTF-8"?>
<svg width="1007px" height="841px" viewBox="0 0 1007 841" version="1.1" xmlns="http://www.w3.org/2000/svg" xmlns:xlink="http://www.w3.org/1999/xlink">
    <!-- Generator: Sketch 48.2 (47327) - http://www.bohemiancoding.com/sketch -->
    <title>Artboard</title>
    <desc>Created with Sketch.</desc>
    <defs></defs>
    <g id="Page-1" stroke="none" stroke-width="1" fill="none" fill-rule="evenodd">
        <g id="Artboard" fill-rule="nonzero">
            <g id="Group" transform="translate(185.000000, 164.000000)">
                <path d="M630.790074,325.844727 L626.615244,318.736 C616.414674,302.053091 598.275758,293.526727 579.890053,296.526364 C573.350172,297.348182 567.077644,299.772545 562.553198,303.059818 L436.87642,376.489273 C434.799287,346.698364 413.267036,329.090909 378.367103,329.090909 L324.15601,329.090909 C314.0994,329.090909 299.538909,324.057273 285.430863,319.188 C269.615867,313.702364 254.685194,308.545455 242.03731,308.545455 L187.846783,308.545455 C165.039461,308.545455 145.892827,315.941818 130.489144,321.9 C120.494231,325.762545 111.877217,329.090909 105.686952,329.090909 L102.828325,329.090909 L102.828325,316.578727 C102.828325,301.087455 89.9953496,288 74.7973233,288 L28.1955266,288 C12.6478839,288 0,300.820364 0,316.578727 L0,485.75 C0,501.323455 12.6478839,514 28.1955266,514 L74.7973233,514 C87.3423788,514 98.1599186,505.144909 101.594385,493.454545 L438.398279,493.454545 C443.107816,493.454545 449.915051,493.084727 456.023054,490.105636 C458.305842,489.530364 461.123338,488.770182 464.86629,486.838909 L615.530351,391.405273 C626.245062,385.015636 633.772095,374.660727 636.712985,362.230727 C639.674441,349.656909 637.453349,336.281818 630.790074,325.844727 Z M74.7973233,493.454545 L28.1955266,493.454545 C23.9795653,493.454545 20.5656649,490.002909 20.5656649,485.75 L20.5656649,316.578727 C20.5656649,312.223091 24.0618279,308.545455 28.1955266,308.545455 L74.7973233,308.545455 C78.5608399,308.545455 82.2626596,312.510727 82.2626596,316.578727 L82.2626596,472.909091 L82.2626596,485.75 C82.2626596,490.085091 78.252355,493.454545 74.7973233,493.454545 Z M616.682028,357.505273 C615.036775,364.470182 610.88251,370.264 604.753942,373.921091 L454.747982,468.984909 C453.658002,469.519091 452.300668,469.868364 449.87392,470.464182 L447.303212,471.491455 C445.616827,472.436545 442.61424,472.909091 437.226036,472.909091 L102.828325,472.909091 L102.828325,349.636364 L105.686952,349.636364 C115.722996,349.636364 126.005829,345.671091 137.913349,341.068909 C152.412143,335.46 168.88524,329.090909 187.846783,329.090909 L242.03731,329.090909 C251.230162,329.090909 265.214815,333.919091 278.726456,338.603455 C294.418059,344.027455 310.623803,349.636364 324.176576,349.636364 L378.387669,349.636364 C403.662871,349.636364 416.47528,360.299455 416.47528,381.317455 C416.47528,386.392182 416.105098,391.590182 414.130794,396.192364 C406.644892,406.773273 395.786221,411.231636 378.57276,411.272727 C378.511063,411.272727 378.469931,411.272727 378.408234,411.272727 L267.353644,411.272727 L267.353644,431.818182 L378.367103,431.818182 C378.4288,431.818182 378.490497,431.818182 378.552194,431.818182 C405.966225,431.777091 423.837788,423.291818 431.961226,406.506182 C433.051206,404.862545 434.100055,403.136727 435.066641,401.349273 L573.699788,320.297455 C576.249931,318.489455 579.273083,317.297818 582.748681,316.866364 C593.360564,315.099455 603.190952,319.866 608.928772,329.275818 L613.20643,336.548909 C617.134472,342.671455 618.388978,350.314364 616.682028,357.505273 Z" id="Shape" fill="#0076BF"></path>
                <path d="M113.286095,267.136942 L135.956648,267.136942 C138.672178,267.691765 141.469995,268 144.32953,268 C147.189064,268 149.986882,267.691765 152.702411,267.136942 L547.544455,267.136942 C550.21884,267.691765 552.975513,268 555.793903,268 C558.67401,268 561.451256,267.691765 564.166785,267.136942 L586.446466,267.136942 C592.124391,267.136942 596.732562,262.533967 596.732562,256.862444 L596.732562,229.573378 C596.794278,228.710321 597,227.888361 597,227.004754 C597,226.121147 596.794278,225.299187 596.732562,224.436129 L596.732562,45.2694372 C596.794278,44.4063794 597,43.5844196 597,42.7008128 C597,41.817206 596.794278,40.9952461 596.732562,40.1321883 L596.732562,10.2744978 C596.732562,4.602975 592.124391,0 586.446466,0 L113.286095,0 C107.608171,0 103,4.602975 103,10.2744978 L103,256.862444 C103,262.533967 107.608171,267.136942 113.286095,267.136942 Z M164.922292,42.7008128 C164.922292,53.7972704 155.500229,63.1470633 144.32953,63.1470633 C133.158831,63.1470633 123.716195,53.7972704 123.716195,42.7008128 C123.716195,31.6249042 133.158831,22.2751112 144.32953,22.2751112 C155.500229,22.2751112 164.922292,31.6249042 164.922292,42.7008128 Z M144.32953,83.6960589 C167.041228,83.6960589 185.494482,65.3047079 185.494482,42.7008128 C185.494482,34.5428615 183.025819,26.9397332 178.870237,20.5489956 L344.538084,20.5489956 C284.220422,23.4669529 236.060925,73.2982671 236.060925,134.287686 C236.060925,191.70158 279.22138,239.169759 334.930871,246.587947 L180.269146,246.587947 C183.478408,240.731483 185.494482,234.135255 185.494482,227.004754 C185.494482,204.400859 167.041228,186.030057 144.32953,186.030057 C136.738392,186.030057 129.702703,188.228799 123.57219,191.824873 L123.57219,77.9217911 C129.702703,81.4973164 136.738392,83.6960589 144.32953,83.6960589 Z M576.160371,44.0159485 C575.460917,54.8041711 566.882314,63.1470633 555.814475,63.1470633 C544.767209,63.1470633 535.777162,53.9822113 535.777162,42.7008128 C535.777162,31.4399632 544.767209,22.2751112 555.814475,22.2751112 C566.882314,22.2751112 575.460917,30.5974544 576.160371,41.385677 L576.160371,44.0159485 Z M555.814475,83.6960589 C563.241036,83.6960589 570.13272,81.5589633 576.160371,78.1272811 L576.160371,191.598835 C570.13272,188.167152 563.241036,186.030057 555.814475,186.030057 C533.431933,186.030057 515.204972,204.421408 515.204972,227.004754 C515.204972,234.135255 517.179903,240.731483 520.368592,246.587947 L365.233707,246.587947 C420.943197,239.169759 464.103652,191.70158 464.103652,134.287686 C464.103652,73.2982671 415.923583,23.4669529 355.626494,20.5489956 L521.767501,20.5489956 C517.673635,26.9602822 515.225544,34.5428615 515.225544,42.7008128 C515.204972,65.3047079 533.431933,83.6960589 555.814475,83.6960589 Z M560.237496,246.587947 L551.638321,246.587947 C542.648274,244.574145 535.777162,236.765527 535.777162,227.004754 C535.777162,215.743904 544.767209,206.579052 555.814475,206.579052 C566.882314,206.579052 575.460917,214.901395 576.160371,225.689618 L576.160371,228.31989 C575.563778,237.587487 569.062966,244.67689 560.237496,246.587947 Z M350.072003,227.169146 C298.538667,227.169146 256.612543,185.516332 256.612543,134.287686 C256.612543,82.7508051 298.538667,40.8103052 350.072003,40.8103052 C401.605339,40.8103052 443.531462,82.7508051 443.531462,134.287686 C443.531462,185.495783 401.605339,227.169146 350.072003,227.169146 Z M140.153375,246.587947 C130.978178,244.553596 123.716195,236.621684 123.716195,227.004754 C123.716195,215.928845 133.158831,206.579052 144.32953,206.579052 C155.500229,206.579052 164.922292,215.928845 164.922292,227.004754 C164.922292,236.621684 157.680881,244.553596 148.505684,246.587947 L140.153375,246.587947 Z" id="Shape" fill="#FDA91C"></path>
                <path d="M393,84.5986959 L392.83455,64 L319.581509,64.5767635 C313.894161,64.6179609 309.30292,69.2526675 309.323601,74.9173088 C309.344282,80.5819502 313.976886,85.1754594 319.664234,85.1754594 C327.812652,85.1754594 335.733577,93.4355365 339.642336,102.519561 L308,102.519561 L308,123.118257 L339.683698,123.118257 C335.836983,131.316538 327.874696,137.76393 319.664234,137.76393 C315.486618,137.76393 311.701946,140.276971 310.109489,144.128927 C308.517032,147.980883 309.406326,152.409603 312.363747,155.355216 L360.406326,203 L374.986618,188.395525 L339.208029,152.903972 C350.045012,146.662567 358.317518,135.601067 361.357664,123.097659 L390.725061,123.097659 L390.725061,102.519561 L361.357664,102.519561 C359.868613,96.38115 357.324818,90.3251334 353.684915,84.9076763 L393,84.5986959 Z" id="Shape" fill="#FDA91C"></path>
            </g>
        </g>
    </g>
</svg>