<?xml version="1.0" encoding="UTF-8"?>
<svg width="707px" height="638px" viewBox="0 0 707 638" version="1.1" xmlns="http://www.w3.org/2000/svg" xmlns:xlink="http://www.w3.org/1999/xlink">
    <!-- Generator: Sketch 49.1 (51147) - http://www.bohemiancoding.com/sketch -->
    <title>Artboard</title>
    <desc>Created with Sketch.</desc>
    <defs></defs>
    <g id="Artboard" stroke="none" stroke-width="1" fill="none" fill-rule="evenodd">
        <g id="Group" transform="translate(138.000000, 96.000000)" fill-rule="nonzero">
            <path d="M215.5,139 C193.183673,139 175,121.265306 175,99.5 C175,77.7346939 193.183673,60 215.5,60 C237.816327,60 256,77.7346939 256,99.5 C256,121.265306 237.816327,139 215.5,139 Z M215.5,84.9897959 C207.234694,84.9897959 199.795918,91.4387755 199.795918,100.306122 C199.795918,108.367347 206.408163,115.622449 215.5,115.622449 C223.765306,115.622449 231.204082,109.173469 231.204082,100.306122 C231.204082,91.4387755 223.765306,84.9897959 215.5,84.9897959 Z" id="Shape" fill="#FDA91C"></path>
            <path d="M432,422.750452 L432,447 L0,447 L0,422.750452 L432,422.750452 Z M425.328185,171.363472 L7.50579151,171.363472 L216,0 L425.328185,171.363472 Z M75.0579151,147.113924 L356.942085,147.113924 L216,31.5244123 L75.0579151,147.113924 Z M50.8725869,397.692586 L50.8725869,196.421338 L25.8532819,196.421338 L25.8532819,396.884268 L50.8725869,396.884268 L50.8725869,397.692586 Z M134.27027,397.692586 L134.27027,196.421338 L109.250965,196.421338 L109.250965,396.884268 L134.27027,396.884268 L134.27027,397.692586 Z M334.42471,397.692586 L334.42471,196.421338 L309.405405,196.421338 L309.405405,396.884268 L334.42471,396.884268 L334.42471,397.692586 Z M417.822394,397.692586 L417.822394,196.421338 L392.803089,196.421338 L392.803089,396.884268 L417.822394,396.884268 L417.822394,397.692586 Z" id="Shape" fill="#0076BF"></path>
        </g>
    </g>
</svg>