<svg xmlns:dc="http://purl.org/dc/elements/1.1/" xmlns:cc="http://creativecommons.org/ns#" xmlns:rdf="http://www.w3.org/1999/02/22-rdf-syntax-ns#" xmlns:svg="http://www.w3.org/2000/svg" xmlns="http://www.w3.org/2000/svg" xmlns:sodipodi="http://sodipodi.sourceforge.net/DTD/sodipodi-0.dtd" xmlns:inkscape="http://www.inkscape.org/namespaces/inkscape" version="1.1" x="0px" y="0px" viewBox="0 0 100 125"><g transform="translate(0,-952.36218)"><path style="text-indent:0;text-transform:none;direction:ltr;block-progression:tb;baseline-shift:baseline;color:#000000;enable-background:accumulate;" d="m 74.895421,978.18252 -25.705594,44.41938 c -0.331108,0.5879 -0.474718,0.9641 -0.552809,1.4818 l -2.245784,14.7835 c -0.119009,0.8646 0.332437,1.7801 1.091707,2.2139 0.759285,0.4338 1.779428,0.359 2.467,-0.1808 l 11.919932,-9.511 c 0.329372,-0.2495 0.456155,-0.5338 0.656458,-0.8615 l 23.114306,-39.87063 1.589322,0.93043 c 0.630546,0.42796 0.657259,0.86173 0.380059,1.37841 l -9.812353,16.95449 c -0.578902,1.0014 -0.192089,2.4379 0.811946,3.0153 1.004021,0.5774 2.444261,0.1916 3.023163,-0.8098 l 9.777802,-16.95453 c 1.367759,-2.61276 1.691394,-5.27997 -1.969327,-7.40892 l -1.589322,-0.93043 0.518258,-0.89596 c 1.568636,-2.75359 0.634071,-6.3385 -2.142135,-7.92589 l -3.351401,-1.96423 c -3.08413,-1.78619 -6.569476,-0.42975 -7.981228,2.13648 z m 5.769938,1.68856 3.351402,1.96424 c 0.849433,0.58025 0.945025,1.12169 0.518202,1.89532 l -23.528856,40.66316 c -0.786433,-0.7231 -1.707767,-1.3399 -2.660389,-1.8953 -1.015211,-0.5918 -2.07658,-1.0842 -3.178648,-1.4129 l 23.56346,-40.69761 c 0.492665,-0.8384 1.103839,-0.98466 1.934829,-0.51691 z m -27.744076,45.31532 c 0.750958,0.098 2.024143,0.4642 3.178651,1.1372 1.059665,0.6178 1.973027,1.4862 2.453089,2.0676 l -6.944659,5.5482 z" fill="#FDA91C" fill-opacity="1" fill-rule="evenodd" stroke="none" marker="none" visibility="visible" display="inline" overflow="visible"/><path style="text-indent:0;text-transform:none;direction:ltr;block-progression:tb;baseline-shift:baseline;color:#000000;enable-background:accumulate;" d="m 70.55702,1023.3131 a 2.2115754,2.2058025 0 1 0 0,4.4116 l 21.233069,0 a 2.2115754,2.2058025 0 0 0 0,-4.4116 l -21.233069,0 z" fill="#0076BF" fill-opacity="1" fill-rule="evenodd" stroke="none" marker="none" visibility="visible" display="inline" overflow="visible"/><path style="text-indent:0;text-transform:none;direction:ltr;block-progression:tb;baseline-shift:baseline;color:#000000;enable-background:accumulate;" d="m 26.835634,963.36458 c -1.087008,0.10222 -2.00864,1.11649 -2.003931,2.20546 l 0,4.41092 -7.704765,0 c -3.520949,0 -6.437956,1.39336 -8.3266801,3.51496 -1.8887244,2.1216 -2.7985925,4.86943 -2.7985925,7.58127 0,2.71185 0.9098681,5.45968 2.7985925,7.58127 0.4238043,0.47607 0.8936928,0.91397 1.4165721,1.3095 -0.5225604,0.39521 -0.9927678,0.83344 -1.4165721,1.30949 -1.8887244,2.1216 -2.7985925,4.86943 -2.7985925,7.58128 0,2.71187 0.9098681,5.45967 2.7985925,7.58127 0.4238043,0.4761 0.8936928,0.914 1.4165721,1.3095 -0.5228793,0.3955 -0.9927678,0.8334 -1.4165721,1.3095 -1.8887244,2.1216 -2.7985925,4.8694 -2.7985925,7.5813 0,2.7118 0.9098681,5.4596 2.7985925,7.5812 1.8887241,2.1217 4.8057311,3.515 8.3266801,3.515 l 26.016547,0 c 1.144857,-0.02 2.172735,-1.0634 2.172735,-2.2055 0,-1.142 -1.027878,-2.1854 -2.172735,-2.2054 l -26.016547,0 c -2.414127,0 -3.965564,-0.8214 -5.04438,-2.0332 -1.078806,-1.2118 -1.658424,-2.9194 -1.658424,-4.6521 0,-1.7328 0.579618,-3.4404 1.658424,-4.6522 1.078816,-1.2118 2.630253,-2.0331 5.04438,-2.0331 l 35.034235,0 c 1.144857,-0.02 2.172735,-1.0635 2.172735,-2.2055 0,-1.142 -1.027878,-2.1854 -2.172735,-2.2055 -11.678077,0 -23.356158,0 -35.034235,0 -2.414127,0 -3.965564,-0.8213 -5.04438,-2.0331 -1.078806,-1.2119 -1.658424,-2.9195 -1.658424,-4.65217 0,-1.73272 0.579618,-3.44032 1.658424,-4.65215 1.078816,-1.21182 2.630253,-2.03316 5.04438,-2.03316 2.56826,0 5.136505,0 7.704765,0 l 0,6.27179 c 0.0066,0.80813 0.497661,1.59389 1.222395,1.95529 0.72473,0.3614 1.649689,0.2819 2.30176,-0.1978 l 9.916002,-7.44345 9.916001,7.44345 c 0.651696,0.4993 1.592089,0.5912 2.328552,0.2275 0.736472,-0.3637 1.233272,-1.16535 1.230154,-1.98499 l 0,-6.27179 11.298022,0 c 1.144857,-0.0201 2.172739,-1.06342 2.172739,-2.20546 0,-1.14204 -1.027882,-2.1854 -2.172739,-2.20546 l -11.298022,0 0,-13.37062 40.044064,0 c 1.144853,-0.0201 2.172735,-1.06341 2.172735,-2.20546 0,-1.14204 -1.027882,-2.1854 -2.172735,-2.20546 l -40.044064,0 0,-4.41092 c 0,-1.15475 -1.053464,-2.20535 -2.211232,-2.20546 l -22.492396,0 c -0.0691,-0.003 -0.13826,-0.003 -0.207305,0 z m 2.418538,4.41092 18.069926,0 0,26.25878 -7.704768,-5.78934 c -0.76011,-0.57083 -1.900279,-0.57083 -2.66039,0 l -7.704768,5.78934 0,-4.06632 0,-4.89337 z m -12.127234,6.61638 7.704765,0 0,10.68271 0,2.68791 c -2.56826,0 -5.136505,0 -7.704765,0 -2.414127,0 -3.965564,-0.82134 -5.04438,-2.03316 -1.078806,-1.21182 -1.658424,-2.91943 -1.658424,-4.65215 0,-1.73272 0.579618,-3.44032 1.658424,-4.65214 1.078816,-1.21183 2.630253,-2.03317 5.04438,-2.03317 z" fill="#0076BF" fill-opacity="1" fill-rule="evenodd" stroke="none" marker="none" visibility="visible" display="inline" overflow="visible"/></g></svg>