<?xml version="1.0" encoding="UTF-8"?>
<svg width="1007px" height="841px" viewBox="0 0 1007 841" version="1.1" xmlns="http://www.w3.org/2000/svg" xmlns:xlink="http://www.w3.org/1999/xlink">
    <!-- Generator: Sketch 48.2 (47327) - http://www.bohemiancoding.com/sketch -->
    <title>Artboard</title>
    <desc>Created with Sketch.</desc>
    <defs></defs>
    <g id="Page-1" stroke="none" stroke-width="1" fill="none" fill-rule="evenodd">
        <g id="Artboard" fill-rule="nonzero">
            <g id="Group" transform="translate(98.000000, 281.000000)">
                <path d="M329.233626,83.5321793 L379.406395,131.88375 C383.725632,136.03875 390.726664,136.03875 395.038164,131.88375 C399.359979,127.728751 399.359979,120.981846 395.038164,116.819391 L363.730789,86.6484288 L469.95049,86.6484288 C476.054152,86.6484288 481,81.8821079 481,75.9999999 C481,70.1178919 476.054152,65.351571 469.95049,65.351571 L363.730789,65.351571 L395.038164,35.1806083 C399.359979,31.0256087 399.359979,24.2787048 395.038164,20.1162495 C392.882413,18.0387501 390.053636,17 387.22228,17 C384.390924,17 381.562146,18.0387501 379.406395,20.1162495 L329.233626,68.4678205 C324.922125,72.62282 324.922125,79.3672396 329.233626,83.5321793 Z" id="Shape" fill="#FDA91C"></path>
                <path d="M477.766375,213.467821 L427.593605,165.11625 C423.274368,160.96125 416.273337,160.96125 411.961836,165.11625 C407.64002,169.271249 407.64002,176.018154 411.961836,180.180609 L443.269211,210.351571 L337.04951,210.351571 C330.945848,210.351571 326,215.117892 326,221 C326,226.882108 330.945848,231.648429 337.04951,231.648429 L443.269211,231.648429 L411.961836,261.819392 C407.64002,265.974391 407.64002,272.721296 411.961836,276.883751 C414.117586,278.96125 416.946365,280 419.777721,280 C422.609077,280 425.437854,278.96125 427.593605,276.883751 L477.766375,228.53218 C482.077875,224.37718 482.077875,217.63276 477.766375,213.467821" id="Shape" fill="#FDA91C"></path>
                <path d="M67.7499996,172 C30.27612,172 0,202.08992 0,239.333334 L0,269.843414 C0,271.527645 1.48146664,273 3.17611999,273 L267.82388,273 C269.518533,273 271,271.527645 271,269.843414 L271,239.333334 C271,202.08992 240.72388,172 203.25,172 L186.115573,172 C184.42092,172 181.837387,172.854684 180.35592,173.90688 C167.441867,183.588516 152.22612,188.831538 135.5,188.831538 C119.6194,188.831538 104.80112,183.588516 92.0966401,173.90688 C90.6151731,172.854684 88.3134798,172 86.4092536,172 L67.7499996,172 Z" id="Shape" fill="#0076BF"></path>
                <path d="M135,0 C97.3878403,0 67,27.0914561 67,73.5006717 C67,119.909888 92.2887466,168 135,168 C181.537387,168 203,119.909888 203,73.5006717 C203,27.0914561 172.61216,0 135,0 Z" id="Shape" fill="#0076BF"></path>
                <path d="M608.75,172 C571.27612,172 541,202.08992 541,239.333334 L541,269.843414 C541,271.527645 542.481467,273 544.17612,273 L808.82388,273 C810.518533,273 812,271.527645 812,269.843414 L812,239.333334 C812,202.08992 781.72388,172 744.25,172 L727.115573,172 C725.42092,172 722.837387,172.854684 721.35592,173.90688 C708.441867,183.588516 693.22612,188.831538 676.5,188.831538 C660.6194,188.831538 645.80112,183.588516 633.09664,173.90688 C631.615173,172.854684 629.31348,172 627.409254,172 L608.75,172 Z" id="Shape" fill="#0076BF"></path>
                <path d="M675,0 C637.38784,0 607,27.0914561 607,73.5006717 C607,119.909888 632.288747,168 675,168 C721.537387,168 743,119.909888 743,73.5006717 C743,27.0914561 712.61216,0 675,0 Z" id="Shape" fill="#0076BF"></path>
            </g>
        </g>
    </g>
</svg>