<svg version="1.1" id="Layer_1" xmlns="http://www.w3.org/2000/svg" xmlns:xlink="http://www.w3.org/1999/xlink" x="0px" y="0px"
	 viewBox="0 0 60 60" enable-background="new 0 0 60 60" xml:space="preserve">
<g>
	<g>
		<path fill="#2058A7" d="M29.6,58.8C13.9,58.8,1.1,46,1.1,30.3c0-15.7,12.8-28.5,28.5-28.5c11.5,0,21.8,6.8,26.2,17.4
			c1.5,3.5,2.2,7.2,2.2,11.1C58.1,46,45.3,58.8,29.6,58.8z M29.6,4.8C15.6,4.8,4.1,16.3,4.1,30.3c0,14.1,11.4,25.5,25.5,25.5
			s25.5-11.4,25.5-25.5c0-3.4-0.7-6.8-2-9.9C49.1,10.9,39.9,4.8,29.6,4.8z"/>
	</g>
</g>
<path fill="#0AB45A" d="M35.6,40.6c-0.4,0.7-0.8,1.2-1.4,1.6c-0.5,0.4-1.1,0.7-1.7,0.9c-0.2,0-0.3,0.1-0.4,0.1V33.1
	c1,0.4,1.9,0.9,2.6,1.6c1,0.9,1.5,2.1,1.5,3.5C36.2,39.1,36,39.9,35.6,40.6 M28.3,28.6c-0.5-0.2-1-0.4-1.4-0.6
	c-0.6-0.3-1.1-0.6-1.6-1c-0.5-0.4-0.8-0.9-1.1-1.4c-0.3-0.5-0.4-1.1-0.4-1.8c0-0.7,0.1-1.4,0.4-2c0.2-0.6,0.6-1.2,1-1.6
	c0.4-0.5,1-0.8,1.6-1.1c0.5-0.2,1-0.4,1.5-0.4V28.6z M38.4,34.7c-0.5-0.9-1.1-1.8-1.9-2.4c-0.8-0.7-1.7-1.2-2.7-1.7
	c-0.6-0.3-1.1-0.5-1.7-0.7V18.5c0.6,0.1,1.1,0.3,1.7,0.5c1,0.5,1.8,1.2,2.3,2.1l2.3-2c-0.4-0.4-0.8-0.9-1.3-1.3
	c-0.5-0.4-1-0.8-1.6-1.1c-0.6-0.3-1.3-0.6-2.1-0.8c-0.4-0.1-0.9-0.2-1.3-0.2v-3.4h-3.7v3.5c-0.8,0.1-1.7,0.3-2.4,0.6
	c-0.9,0.4-1.8,0.9-2.5,1.6c-0.7,0.7-1.3,1.5-1.8,2.5c-0.5,1-0.7,2-0.7,3.2c0,1.3,0.2,2.3,0.7,3.2c0.5,0.9,1.1,1.7,1.8,2.3
	c0.8,0.6,1.6,1.2,2.5,1.6c0.8,0.3,1.5,0.6,2.3,0.9v11.6c-0.3,0-0.6-0.1-1-0.2c-0.5-0.1-1.1-0.4-1.6-0.7c-0.5-0.3-1.1-0.7-1.6-1.1
	c-0.5-0.4-1-0.9-1.5-1.5l-2.5,1.8c0.8,1.2,2,2.2,3.5,3.1c1.4,0.8,2.9,1.2,4.7,1.4v3.2h3.7v-3.4c0.7-0.1,1.4-0.3,2-0.6
	c1-0.4,1.9-1,2.6-1.6c0.8-0.7,1.3-1.5,1.8-2.4c0.4-0.9,0.6-2,0.6-3.1C39.1,36.8,38.9,35.6,38.4,34.7"/>
</svg>
