<?xml version="1.0" encoding="utf-8"?>
<!-- Generator: Adobe Illustrator 19.1.0, SVG Export Plug-In . SVG Version: 6.00 Build 0)  -->
<svg version="1.1" id="Layer_1" xmlns="http://www.w3.org/2000/svg" xmlns:xlink="http://www.w3.org/1999/xlink" x="0px" y="0px"
	 viewBox="0 0 41.5 41.5" style="enable-background:new 0 0 41.5 41.5;" xml:space="preserve">
<style type="text/css">
	.st0{fill:#0AB45A;}
	.st1{fill:#2058A7;}
</style>
<g>
	<path class="st0" d="M0,11h2V7H0V11z M0,4h2V0H0V4z M0,18h2v-4H0V18z M0,25h2v-4H0V25z M0,32h2v-4H0V32z M0,39h2v-4H0V39z
		 M23.5,41.5h4v-2h-4V41.5z M30.5,41.5h4v-2h-4V41.5z M37.5,39.5v2h4v-2H37.5z M2.5,41.5h4v-2h-4V41.5z M9.5,41.5h4v-2h-4V41.5z
		 M16.5,41.5h4v-2h-4V41.5z"/>
	<path class="st1" d="M19.2,20.9h3v13.3h-3V20.9z M13.1,34.1h3V16.7h-3V34.1z M7.4,34.1h3v-25h-3V34.1z M36.5,21.7v12.5h3V21.7H36.5
		z M24.5,34.1h3V17.3h-3V34.1z M30.7,34.1h3V18.6h-3V34.1z"/>
</g>
</svg>
