<?xml version="1.0" encoding="UTF-8"?>
<svg width="937px" height="774px" viewBox="0 0 937 774" version="1.1" xmlns="http://www.w3.org/2000/svg" xmlns:xlink="http://www.w3.org/1999/xlink">
    <!-- Generator: Sketch 49.1 (51147) - http://www.bohemiancoding.com/sketch -->
    <title>Artboard</title>
    <desc>Created with Sketch.</desc>
    <defs></defs>
    <g id="Artboard" stroke="none" stroke-width="1" fill="none" fill-rule="evenodd">
        <g id="trading" transform="translate(137.000000, 56.000000)" fill-rule="nonzero">
            <path d="M476.04505,479.269932 C449.41455,450.435454 413.1374,433.682523 373.89885,432.114351 C334.6603,430.590354 297.1566,444.339463 268.30505,470.965249 L119.96985,607.80478 C96.83115,629.151791 66.742,640.913077 35.23845,640.913077 L0,640.913077 L0,663 L35.23845,663 C72.30015,663 107.72645,649.162543 134.95365,624.038668 L283.2778,487.199137 C333.89785,440.507382 413.0711,443.676855 459.7905,494.255909 C487.53705,524.294124 526.91925,541.521924 567.8153,541.521924 L663,541.521924 L663,519.435001 L567.82635,519.435001 C533.0741,519.435001 499.6147,504.791371 476.04505,479.269932 Z" id="Shape" fill="#FDA91C"></path>
            <path d="M121,452.928571 L143,452.928571 L143,475 L165,475 L165,452.928571 L187,452.928571 C193.072,452.928571 198,447.984571 198,441.892857 L198,210.142857 C198,204.051143 193.072,199.107143 187,199.107143 L165,199.107143 L165,166 L143,166 L143,199.107143 L121,199.107143 C114.928,199.107143 110,204.051143 110,210.142857 L110,441.892857 C110,447.984571 114.928,452.928571 121,452.928571 Z M132,221.178571 L176,221.178571 L176,430.857143 L132,430.857143 L132,221.178571 Z" id="Shape" fill="#0076BF"></path>
            <path d="M320,265 L386,265 C392.072,265 397,260.053333 397,253.958333 L397,77.291667 C397,71.196667 392.072,66.25 386,66.25 L364,66.25 L364,0 L342,0 L342,66.25 L320,66.25 C313.928,66.25 309,71.196667 309,77.291667 L309,253.958333 C309,260.053333 313.928,265 320,265 Z M331,88.333333 L375,88.333333 L375,242.916667 L331,242.916667 L331,88.333333 Z" id="Shape" fill="#0076BF"></path>
            <path d="M431,353.5625 L453,353.5625 L453,431 L475,431 L475,353.5625 L497,353.5625 C503.072,353.5625 508,348.6065 508,342.5 L508,165.5 C508,159.3935 503.072,154.4375 497,154.4375 L475,154.4375 L475,77 L453,77 L453,154.4375 L431,154.4375 C424.928,154.4375 420,159.3935 420,165.5 L420,342.5 C420,348.6065 424.928,353.5625 431,353.5625 Z M486,176.5625 L486,242.9375 L464,242.9375 L464,265.0625 L486,265.0625 L486,331.4375 L442,331.4375 L442,309.3125 L464,309.3125 L464,287.1875 L442,287.1875 L442,220.8125 L464,220.8125 L464,198.6875 L442,198.6875 L442,176.5625 L486,176.5625 Z" id="Shape" fill="#0076BF"></path>
            <path d="M541,419.681818 L563,419.681818 L563,497 L585,497 L585,419.681818 L607,419.681818 C613.072,419.681818 618,414.733455 618,408.636364 L618,342.363636 C618,336.266545 613.072,331.318182 607,331.318182 L585,331.318182 L585,254 L563,254 L563,331.318182 L541,331.318182 C534.928,331.318182 530,336.266545 530,342.363636 L530,408.636364 C530,414.733455 534.928,419.681818 541,419.681818 Z M552,353.409091 L596,353.409091 L596,397.590909 L552,397.590909 L552,353.409091 Z" id="Shape" fill="#0076BF"></path>
            <polygon id="Shape" fill="#0076BF" points="243 430 265 430 265 264.482759 287 264.482759 287 242.413793 265 242.413793 265 110 243 110 243 242.413793 221 242.413793 221 264.482759 243 264.482759"></polygon>
            <path d="M11,551.862069 L33,551.862069 L33,596 L55,596 L55,551.862069 L77,551.862069 C83.072,551.862069 88,546.918621 88,540.827586 L88,364.275862 C88,358.184828 83.072,353.241379 77,353.241379 L55,353.241379 L55,276 L33,276 L33,353.241379 L11,353.241379 C4.928,353.241379 0,358.184828 0,364.275862 L0,540.827586 C0,546.918621 4.928,551.862069 11,551.862069 Z M66,375.310345 L66,441.517241 L44,441.517241 L44,463.586207 L66,463.586207 L66,529.793103 L22,529.793103 L22,507.724138 L44,507.724138 L44,485.655172 L22,485.655172 L22,419.448276 L44,419.448276 L44,397.37931 L22,397.37931 L22,375.310345 L66,375.310345 Z" id="Shape" fill="#0076BF"></path>
        </g>
    </g>
</svg>